HIERARCHY
ROOT Hips
{
	OFFSET -14.64140 90.27770 -84.91600
	CHANNELS 6 Xposition Yposition Zposition Zrotation Xrotation Yrotation
	JOINT Spine
	{
		OFFSET 0.00000 13.20850 -1.60436
		CHANNELS 3 Zrotation Xrotation Yrotation
		JOINT Spine1
		{
			OFFSET 0.00000 8.61716 0.00000
			CHANNELS 3 Zrotation Xrotation Yrotation
			JOINT Spine2
			{
				OFFSET 0.00000 8.61717 0.00000
				CHANNELS 3 Zrotation Xrotation Yrotation
				JOINT Spine3
				{
					OFFSET 0.00000 8.61717 0.00000
					CHANNELS 3 Zrotation Xrotation Yrotation
					JOINT Neck
					{
						OFFSET 0.00000 11.07920 1.10792
						CHANNELS 3 Zrotation Xrotation Yrotation
						JOINT Neck1
						{
							OFFSET 0.00000 7.08032 0.00000
							CHANNELS 3 Zrotation Xrotation Yrotation
							JOINT Head
							{
								OFFSET 0.00000 7.08031 0.00000
								CHANNELS 3 Zrotation Xrotation Yrotation
								End site
								{
									OFFSET 0.00000 0.00000 0.00000
								}
							}
						}
					}
					JOINT RightShoulder
					{
						OFFSET -0.01000 7.91373 5.19711
						CHANNELS 3 Zrotation Xrotation Yrotation
						JOINT RightArm
						{
							OFFSET -18.41580 0.00000 0.00000
							CHANNELS 3 Zrotation Xrotation Yrotation
							JOINT RightForeArm
							{
								OFFSET -29.11090 0.00000 0.00000
								CHANNELS 3 Zrotation Xrotation Yrotation
								JOINT RightHand
								{
									OFFSET -24.65040 0.00000 0.00000
									CHANNELS 3 Zrotation Xrotation Yrotation
									JOINT RightHandThumb1
									{
										OFFSET -5.35114 -0.85590 3.97906
										CHANNELS 3 Zrotation Xrotation Yrotation
										JOINT RightHandThumb2
										{
											OFFSET -4.52789 0.00000 0.00000
											CHANNELS 3 Zrotation Xrotation Yrotation
											JOINT RightHandThumb3
											{
												OFFSET -2.46976 0.00000 0.00000
												CHANNELS 3 Zrotation Xrotation Yrotation
												End site
												{
													OFFSET 0.00000 0.00000 0.00000
												}
											}
										}
									}
									JOINT RightHandIndex1
									{
										OFFSET -14.26970 0.00000 2.88139
										CHANNELS 3 Zrotation Xrotation Yrotation
										JOINT RightHandIndex2
										{
											OFFSET -5.48836 0.00000 0.00000
											CHANNELS 3 Zrotation Xrotation Yrotation
											JOINT RightHandIndex3
											{
												OFFSET -3.01859 0.00000 0.00000
												CHANNELS 3 Zrotation Xrotation Yrotation
												End site
												{
													OFFSET 0.00000 0.00000 0.00000
												}
											}
										}
									}
									JOINT RightHandMiddle1
									{
										OFFSET -14.26970 0.00000 -0.09147
										CHANNELS 3 Zrotation Xrotation Yrotation
										JOINT RightHandMiddle2
										{
											OFFSET -6.17441 0.00000 0.00000
											CHANNELS 3 Zrotation Xrotation Yrotation
											JOINT RightHandMiddle3
											{
												OFFSET -3.56743 0.00000 0.00000
												CHANNELS 3 Zrotation Xrotation Yrotation
												End site
												{
													OFFSET 0.00000 0.00000 0.00000
												}
											}
										}
									}
									JOINT RightHandRing1
									{
										OFFSET -12.69180 0.00000 -3.06433
										CHANNELS 3 Zrotation Xrotation Yrotation
										JOINT RightHandRing2
										{
											OFFSET -5.62556 0.00000 0.00000
											CHANNELS 3 Zrotation Xrotation Yrotation
											JOINT RightHandRing3
											{
												OFFSET -3.56744 0.00000 0.00000
												CHANNELS 3 Zrotation Xrotation Yrotation
												End site
												{
													OFFSET 0.00000 0.00000 0.00000
												}
											}
										}
									}
									JOINT RightHandPinky1
									{
										OFFSET -11.11390 0.00000 -6.03719
										CHANNELS 3 Zrotation Xrotation Yrotation
										JOINT RightHandPinky2
										{
											OFFSET -4.52789 0.00000 0.00000
											CHANNELS 3 Zrotation Xrotation Yrotation
											JOINT RightHandPinky3
											{
												OFFSET -2.46976 0.00000 0.00000
												CHANNELS 3 Zrotation Xrotation Yrotation
												End site
												{
													OFFSET 0.00000 0.00000 0.00000
												}
											}
										}
									}
								}
							}
						}
					}
					JOINT LeftShoulder
					{
						OFFSET 0.01000 7.91373 5.19711
						CHANNELS 3 Zrotation Xrotation Yrotation
						JOINT LeftArm
						{
							OFFSET 18.41580 0.00000 0.00000
							CHANNELS 3 Zrotation Xrotation Yrotation
							JOINT LeftForeArm
							{
								OFFSET 29.11090 0.00000 0.00000
								CHANNELS 3 Zrotation Xrotation Yrotation
								JOINT LeftHand
								{
									OFFSET 24.65040 0.00000 0.00000
									CHANNELS 3 Zrotation Xrotation Yrotation
									JOINT LeftHandThumb1
									{
										OFFSET 5.35114 -0.85590 3.97906
										CHANNELS 3 Zrotation Xrotation Yrotation
										JOINT LeftHandThumb2
										{
											OFFSET 4.52789 0.00000 0.00000
											CHANNELS 3 Zrotation Xrotation Yrotation
											JOINT LeftHandThumb3
											{
												OFFSET 2.46977 0.00000 0.00000
												CHANNELS 3 Zrotation Xrotation Yrotation
												End site
												{
													OFFSET 0.00000 0.00000 0.00000
												}
											}
										}
									}
									JOINT LeftHandIndex1
									{
										OFFSET 14.26970 0.00000 2.88139
										CHANNELS 3 Zrotation Xrotation Yrotation
										JOINT LeftHandIndex2
										{
											OFFSET 5.48836 0.00000 0.00000
											CHANNELS 3 Zrotation Xrotation Yrotation
											JOINT LeftHandIndex3
											{
												OFFSET 3.01859 0.00000 0.00000
												CHANNELS 3 Zrotation Xrotation Yrotation
												End site
												{
													OFFSET 0.00000 0.00000 0.00000
												}
											}
										}
									}
									JOINT LeftHandMiddle1
									{
										OFFSET 14.26970 0.00000 -0.09147
										CHANNELS 3 Zrotation Xrotation Yrotation
										JOINT LeftHandMiddle2
										{
											OFFSET 6.17440 0.00000 0.00000
											CHANNELS 3 Zrotation Xrotation Yrotation
											JOINT LeftHandMiddle3
											{
												OFFSET 3.56744 0.00000 0.00000
												CHANNELS 3 Zrotation Xrotation Yrotation
												End site
												{
													OFFSET 0.00000 0.00000 0.00000
												}
											}
										}
									}
									JOINT LeftHandRing1
									{
										OFFSET 12.69180 0.00000 -3.06433
										CHANNELS 3 Zrotation Xrotation Yrotation
										JOINT LeftHandRing2
										{
											OFFSET 5.62556 0.00000 0.00000
											CHANNELS 3 Zrotation Xrotation Yrotation
											JOINT LeftHandRing3
											{
												OFFSET 3.56744 0.00000 0.00000
												CHANNELS 3 Zrotation Xrotation Yrotation
												End site
												{
													OFFSET 0.00000 0.00000 0.00000
												}
											}
										}
									}
									JOINT LeftHandPinky1
									{
										OFFSET 11.11390 0.00000 -6.03719
										CHANNELS 3 Zrotation Xrotation Yrotation
										JOINT LeftHandPinky2
										{
											OFFSET 4.52789 0.00000 0.00000
											CHANNELS 3 Zrotation Xrotation Yrotation
											JOINT LeftHandPinky3
											{
												OFFSET 2.46976 0.00000 0.00000
												CHANNELS 3 Zrotation Xrotation Yrotation
												End site
												{
													OFFSET 0.00000 0.00000 0.00000
												}
											}
										}
									}
								}
							}
						}
					}
					JOINT pCube4
					{
						OFFSET 0.00000 10.91090 1.10792
						CHANNELS 3 Zrotation Xrotation Yrotation
						End site
						{
							OFFSET 0.00000 0.00000 0.00000
						}
					}
				}
			}
		}
	}
	JOINT RightUpLeg
	{
		OFFSET -9.98441 0.00000 0.00000
		CHANNELS 3 Zrotation Xrotation Yrotation
		JOINT RightLeg
		{
			OFFSET 0.00000 -42.11790 0.00000
			CHANNELS 3 Zrotation Xrotation Yrotation
			JOINT RightFoot
			{
				OFFSET 0.00000 -45.00020 -0.00001
				CHANNELS 3 Zrotation Xrotation Yrotation
				JOINT RightForeFoot
				{
					OFFSET 0.00000 -3.74820 0.00000
					CHANNELS 3 Zrotation Xrotation Yrotation
					JOINT RightToeBase
					{
						OFFSET 0.00000 0.06325 14.43120
						CHANNELS 3 Zrotation Xrotation Yrotation
						End site
						{
							OFFSET 0.00000 0.00000 0.00000
						}
					}
				}
			}
		}
	}
	JOINT LeftUpLeg
	{
		OFFSET 9.98441 0.00000 0.00000
		CHANNELS 3 Zrotation Xrotation Yrotation
		JOINT LeftLeg
		{
			OFFSET 0.00000 -42.11800 0.00000
			CHANNELS 3 Zrotation Xrotation Yrotation
			JOINT LeftFoot
			{
				OFFSET 0.00000 -45.00070 0.00000
				CHANNELS 3 Zrotation Xrotation Yrotation
				JOINT LeftForeFoot
				{
					OFFSET 0.00000 -3.74824 0.00000
					CHANNELS 3 Zrotation Xrotation Yrotation
					JOINT LeftToeBase
					{
						OFFSET 0.00000 0.06325 14.43110
						CHANNELS 3 Zrotation Xrotation Yrotation
						End site
						{
							OFFSET 0.00000 0.00000 0.00000
						}
					}
				}
			}
		}
	}
}
MOTION
Frames: 4
Frame Time: 0.050000
0.04058013138924019 -0.017215633434910876 0.010552540641481818 0.04105303638957297 -0.0010054635025300324 0.044278286167474756 4.7744416172882485 1.9671302520671756 -2.238940924141118 -0.6776553940044712 3.462085884411482 0.4070383374978951 -0.8977759234151186 -1.6329792716907734 2.1467098876677895 -1.0072263724467494 -0.8106924723279509 -0.12173294721227736 1.2582448229510967 13.896642270393025 -2.7887189961451475 0.5209804832385462 -0.4960063940937838 -6.680044593640078 1.612888359479406 -17.317237907360674 -0.6530750986247257 -15.410950192658701 4.752974007359294 -18.815085397940017 80.42844473551315 -12.323252720750979 39.01643464568741 3.3433177376869487 4.973535815507276 103.6053037987507 19.96261943611316 -0.8999882853089379 -5.688987166843593 4.515258879132693 -0.07879133752294101 -1.6076115788269476 0.006029453143581725 -0.008161511131349962 -56.219598846553104 -0.0027310779534473434 -0.0182753203285549 -56.260934821429466 -38.794415661030044 0.021258972670854817 0.012562228599446201 0.034997450289469885 -0.005005723575119161 0.048776140557203244 0.03951231147329155 0.015372533229753706 0.022576260206841923 -36.66478572210622 0.018712221637721807 0.042291277021533444 0.035809454729224914 -0.03382252983466244 0.04212468534512671 -0.0011781799351289863 0.0005688155130975837 0.0035148824672228255 -19.78844123785038 -0.015566820058548137 0.031400579750458624 0.021363308388806734 -0.01703958997742381 -0.025268610978226764 0.006770955616393857 -0.03766748508867698 -0.03880910590956145 24.05909948254753 -0.030479815093417677 -0.021181935199090805 28.854589294979508 -0.033270112412115936 0.013693004386242484 28.91123032081742 0.007774399109356682 0.04008681939726934 10.66070968540583 2.475095331219638 14.80711091754522 -73.10051886860525 20.45630291294466 -11.439190780460825 -28.590589613048213 10.278018508113995 -86.37684571684989 -29.91853462091293 -11.534026510844944 9.148663485911328 -0.4835464895585743 0.03943540528580809 -8.12006348857319 -0.014020570030294225 -0.007383178226293991 44.551131957464605 0.031476414740622835 0.009403656757262182 44.56264588621392 12.447064052082753 0.043713685533685195 -0.014883287574397986 -0.018076272983785054 0.018177525133803323 -0.008769464229938649 -0.013675991225872718 0.034269764779025824 -0.03518709420411888 11.109183623094582 0.028857360075677643 0.04720244303088347 0.021808082015828827 0.045171323434652653 0.028968573273820963 0.016180467534455362 -0.045281084309483084 -0.008041755799790917 4.743474815708811 -0.0224730015748672 -0.01702946765092345 0.0422775371767134 -0.03254092341625284 0.03332019237817336 -0.030842252599017905 0.020557022719376598 -0.046680971642060066 -5.561819655234579 -0.008147129070057947 -0.009301552985882835 -6.700902283213854 -0.013123503074187155 0.005664157718446969 -6.678175309240186 0.04346126555177191 0.011014055002337557 0.048147659806157275 -0.006636710408695833 0.04365874214854892 8.055474199876954 3.4540223021015812 -19.23673206866825 -0.011049563486491939 10.42403302213031 0.036901451084237896 -5.644302457949616 -15.680198451573176 3.205444492062478 0.002682859847890276 -0.03133033542470828 0.04008054108291675 -0.03558439072357102 4.735948325397292 0.01650945628571606 12.47456221790852 -8.241850360541694 6.912196059952015 0.0014494949955345066 46.388190417771085 0.039385059802902106 -4.282099139158015 -14.735142750386206 -3.810583626497061 -0.049821343441752 0.012434507491291137 0.004062958942442193 0.038299336947886814 -10.704898325733812 -0.005230910681747848 
-0.006661449244073849 0.031814562633151106 -0.03445527835149772 -0.0021771585419261257 -0.007670827125537014 0.013887942756655253 4.582412435934469 2.1358218235197417 -2.1602712628227843 -0.7551120005812457 3.459554537594511 0.3931390928697071 -0.8469789416453247 -1.550121929363088 2.056517424510564 -0.9808378812130154 -0.7315652792890979 -0.06641980913681637 1.2022712096181805 13.642924058169264 -2.7562502751803972 0.48167008610328343 -0.5438328848098364 -6.834207311663693 1.607261844366099 -17.465955168324008 -0.6673858587756605 -14.719920864627637 4.5659358207760485 -18.440883445420717 77.62949768920619 -10.904258752100086 37.52209985958422 4.333220948159322 4.561192489653293 102.5338025256423 20.850000623167954 -0.8061602577640339 -6.039329565631436 4.5627889409396 -0.14807894366149868 -1.591659812715294 -0.0382445306325239 -0.023037426786899948 -56.26320406832083 0.030010273498692723 -0.04578194296901743 -56.19231148677368 -38.77929413190602 0.024184629010877024 -0.006089539729846626 0.010113708605012399 -0.010965877882267048 -0.02890402732924611 -0.03576807480875073 -0.01570781567901784 0.009122263372372928 -36.681072449947166 0.01551714297596655 -0.01994702384092066 -0.03976335842629538 0.03519270103662973 -0.0060393472705872996 0.04261112284628931 -0.024716950671781503 0.04334149266979291 -19.77761392815397 0.011552806217460496 0.005731872920965444 -0.022704688509860925 -0.023697043605282863 0.025465531250766116 0.00680834021365971 -0.031511091954642766 0.02736785387115379 24.085156367718458 0.0004230834122469535 0.039181535907089976 28.835199944040465 -0.04025160101422654 0.035213553449262164 28.85936294568203 -0.02580614156916773 0.010394038561771884 10.249993157576064 2.449886790972766 14.659263327452825 -71.88009707085676 20.73888112047191 -11.70755413408638 -26.95964293199794 8.874900903647351 -87.76663572302111 -29.28182359773181 -10.987294699471803 8.644983468194088 -0.46583702045691977 0.042704433637850404 -8.163263246347883 0.029596307623057528 -0.027587739665731803 44.560943498663256 -0.017499618466982413 -0.02056085603537906 44.5390347580506 12.442143645199579 0.004795259825040458 -0.010630329916029963 0.034036644941050145 0.01606964680894063 -0.023730377670241994 -0.005773475878501389 -0.009881101699694092 0.008498413603255718 11.065253720810503 -0.022614147045343966 -0.02489806517585229 0.02551934996372281 -0.0020021461076967255 0.01965473405861432 -0.04562125746772142 -0.01800933690212629 -0.007850745470479063 4.81573334381225 -0.007553457792508737 -0.009386381007689099 0.02102026587597952 0.030353860713025146 0.016021216044000978 0.025988440792162587 0.002541317246624916 0.03171415596341296 -5.594650109864143 -0.019559527034773067 -0.04941170522463254 -6.768408818674036 0.008897335116985705 0.017464605038183215 -6.751873100091156 -0.01729386167909779 -0.040854120045909444 -0.009795272138471799 0.007925071681647551 -0.013108610310213114 8.068804839002226 3.517339664181836 -19.199152129447594 0.023503305173054413 10.376381180342985 0.010302673088001531 -5.629412894523969 -15.667553446956816 3.2115106018587753 -0.049796038554286146 -0.03673428180453724 0.038750562839049436 0.008940543344478141 4.735989948344742 -0.004571972838552024 12.47103437448303 -8.194718666682933 6.907786453272848 -0.004679344313438501 46.331611015207464 0.013546720936490906 -4.310018266717678 -14.750469171401642 -3.803761704339864 0.018676517484003202 -0.01978779830331815 -0.007070569825577892 0.03996811452728864 -10.747991764251543 -0.007857366872312746 
0.010925429810592557 -0.010543176508714615 -0.02480243194949848 0.03992512336897592 0.025244376706161115 -0.0019937472324994803 4.383194065682371 2.2974701970189697 -2.107405068883852 -0.6942486065510381 3.437453676741031 0.44369357541482296 -0.9146655295886644 -1.4671879302527755 1.9569569493290182 -0.9197112100572655 -0.7392114542924788 -0.124261217163174 1.0908774765915832 13.223496192147705 -2.7848944355841696 0.4363516890192036 -0.723813061472116 -6.9875073406125985 1.4541900404372137 -17.47675003876215 -0.6575877728510302 -13.7691985048521 4.354796466140233 -18.009043595416102 74.73318037280784 -8.401105864701577 35.1186032548861 4.768512582550607 3.757059366608454 101.84664344624478 21.501754148659927 -0.7606262817600495 -6.221900706782561 4.534486201506089 -0.07830196191359108 -1.6043340857849513 0.04450519041030918 0.011802994937210824 -56.19342666377147 -0.020406487408292692 -0.007295984182949617 -56.2474859339162 -38.725385862267515 0.036523074152799526 -0.007949839784913603 -0.019058707895350576 0.04175339089548092 0.0403396170689565 -0.016801977702107746 0.02046476978526277 0.003976113442196799 -36.64986371324893 0.047813463071981054 -0.005818128668096832 0.04003538354071145 0.016948764498529095 -0.03212712635439404 -0.022575933073387355 0.037926880951377806 0.028960849320733426 -19.7367579389711 -0.020032882036869405 -0.02227380320922406 0.04171467240113578 -0.03346009881208581 0.04231723937791384 0.02956369543303557 -0.04915227686577217 0.022941727915097545 24.092899516281022 0.04454832485319188 -0.02551473957374582 28.901610859308533 0.02805840301128374 -0.038329637740856064 28.86495874581945 -0.023962492963167433 0.03520398355511397 9.731038024114325 2.365818053813468 14.480333017377852 -71.02096462935567 20.84113462752093 -11.623700098030412 -25.57205671835446 7.868474735926525 -88.26321067555534 -28.507390815021832 -10.402470767573233 7.944000385498793 -0.4560757188980492 0.04337836160875616 -8.11531841682018 0.013797854828283785 -0.025726506451747056 44.58793558145643 -0.027500809711437736 -0.025539723906144132 44.569737771359335 12.462842935329656 0.022306483690438278 -0.006278291192023894 0.020265425760173886 0.010204642929473401 -0.03263524436533745 0.008641505057387573 0.0117040205733241 0.026531312679850864 11.130142414536543 0.00387834892715476 -0.0039702471402473915 -0.030459476033908525 0.033858368677102686 -0.012655809955006212 -0.036652583586028104 0.04384838066807393 -0.020384965644394806 4.758666440840606 -0.02743669760268857 -0.005572282631247871 0.025169051038126684 -0.004156964717572277 -0.008937051887565134 -0.0066569312099476995 -0.026589512627408378 -0.014082039940402765 -5.602782892346597 0.04132535264076692 0.034886180483510734 -6.732596403870805 -0.03190152935972304 -0.02036080558733165 -6.71529050866605 -0.012128302292989961 -0.0030744397900153244 0.00865355692806096 0.025348184045877274 -0.008353249788591173 8.032249471359785 3.502902574646952 -19.19681122787747 -0.030843947687739987 10.39944856577216 0.009191885180306272 -5.591261464337259 -15.619026068978476 3.193268341807601 -0.013502039849053422 8.82275014446906e-05 -0.040883242726907194 -0.02220060075074436 4.712436663915307 0.0276369925795738 12.489958061154551 -8.244075982513793 6.841832241630186 -0.02921716755720196 46.38653177432863 0.04910390848047355 -4.317915197963612 -14.735181232467854 -3.8544209826412548 0.03428228208671632 -0.048535663447091676 0.0006605549751897276 -0.0022036652744482016 -10.761568902013655 -0.018338768900243534 
-0.01736287466291035 0.0464950011678197 0.017006717557001918 0.04011257449284889 0.008589509641224574 0.036721465082947595 4.2834138788200224 2.5497090694671525 -2.0814210097017267 -0.6589239647222574 3.4726561365574846 0.3963631132604055 -0.8069686113378812 -1.3343324340666634 1.8830312048396363 -0.7702491233330084 -0.7275064453848912 -0.19933838906402263 0.9423640743621425 12.700385616320354 -2.709225504043037 0.34596748926359916 -0.7672781368768881 -7.022059381197635 1.3420683617675644 -17.55945494571211 -0.649377404843854 -12.72615165059964 4.096267406503898 -17.582153324611404 71.48190884989417 -5.44922835518025 32.02002079675263 4.288175551858942 2.6506829788744137 101.39174170863161 22.106609867429192 -0.7502816116028208 -6.26165550288361 4.50433184554619 -0.09529103764488052 -1.6075183968617812 0.04227622062552783 -0.01396598828578661 -56.193665650913836 0.031045680726528586 -0.0038321572855232445 -56.22569388275164 -38.76910037666667 -0.0017109373738984654 0.02260506698023342 -0.02041130695478488 0.03590549659754999 -0.011590802170823094 0.011938929405673062 0.00689425215974108 0.006874917686361882 -36.68194863024274 -0.0036156451407186245 -0.04402288159811426 -0.018979974129110417 0.012577884117561808 -0.013922055163530617 0.0004803813548503831 0.04607994031192331 0.03695701681180818 -19.792959643818833 0.0055348474333680895 -0.04575561329594003 -0.020141298853144526 0.009855989597186825 -0.01586566426269377 0.040569105351964736 0.025185770252032978 0.04636058241667581 24.08114959237235 0.02243164142934574 -0.04899914856139556 28.901645762039784 0.045787865645828284 -0.049245753800167026 28.88332039846306 -0.04199686639389528 -0.009306196324521258 9.190305392526623 2.204098266404519 14.437304167033231 -70.11991859464356 20.208104570473022 -11.496251299652426 -24.655120296906322 7.186602978645966 -88.76504748542433 -28.0624184813413 -9.862075219946849 7.366241926836322 -0.4464092660765526 0.07708359668828721 -8.126954341899445 -0.04435690677431948 0.03169378672692885 44.545556911729896 -0.0050519218794006 -0.02399598378255642 44.60803265754858 12.454520528530018 0.027814541598084407 0.045570742211496706 0.018270590129099748 -0.018730064935622504 0.032315379741767555 -0.0041685485871675336 -0.022126963424967117 0.04685941016362589 11.080479777187605 -0.01806398948653191 -0.035406404204564645 0.016974413409065317 0.02936410281151742 0.02133026115051451 0.0033036344830735254 -0.03652779406493942 -0.027440887433657357 4.772008092013731 -0.027862275977264095 -0.019210276785431152 -0.00666061517598045 0.028442596798035936 0.010053754633114921 -0.013482520075694813 -0.005790201394463881 -0.03490241630045184 -5.584621124352542 -0.031121524582415842 0.0011044133218742658 -6.680632677258971 0.04791640456916621 0.010083624298145239 -6.689103541354382 0.02318959310578817 0.0027689831570533664 -0.02902344602875806 0.02474006794131388 -0.023338094763795426 8.05726089740153 3.5105816984405607 -19.24145510567751 0.013612684651015967 10.409896161482733 0.041963553440256776 -5.620990222803546 -15.613889885110659 3.235439505689558 -0.03929892655300007 0.043149768500869656 0.007428284809622233 -0.046489677194090535 4.706219194096769 0.039854322408344973 12.492543764554396 -8.274549604413242 6.906473990379054 0.023055061147242466 46.40518859869759 0.019176602181148812 -4.373687296640194 -14.750036546008044 -3.8657871885611192 0.03582310238953572 0.04509429513635534 -0.015291080466275893 -0.047365429415438705 -10.748491398387397 0.023886079301608548 
